<?xml version="1.0" encoding="utf-8"?>
<svg version="1.1" xmlns:xlink="http://www.w3.org/1999/xlink" width="87px" height="25px" xmlns="http://www.w3.org/2000/svg">
  <defs>
    <mask fill="white" id="clip8">
      <path d="M 0 19.047619047619  L 0 5.95238095238095  C 0 2.61904761904761  2.20000000000005 0  5 0  L 53.292134831464 0  L 82 0  C 84.8 0  87 2.61904761904761  87 5.95238095238095  L 87 19.047619047619  C 87 22.3809523809524  84.8 25  82 25  L 5 25  C 2.20000000000005 25  0 22.3809523809524  0 19.047619047619  Z " fill-rule="evenodd" />
    </mask>
  </defs>
  <g transform="matrix(1 0 0 1 -1165 -415 )">
    <path d="M 0 19.047619047619  L 0 5.95238095238095  C 0 2.61904761904761  2.20000000000005 0  5 0  L 53.292134831464 0  L 82 0  C 84.8 0  87 2.61904761904761  87 5.95238095238095  L 87 19.047619047619  C 87 22.3809523809524  84.8 25  82 25  L 5 25  C 2.20000000000005 25  0 22.3809523809524  0 19.047619047619  Z " fill-rule="nonzero" fill="#ffffff" stroke="none" transform="matrix(1 0 0 1 1165 415 )" />
    <path d="M 0 19.047619047619  L 0 5.95238095238095  C 0 2.61904761904761  2.20000000000005 0  5 0  L 53.292134831464 0  L 82 0  C 84.8 0  87 2.61904761904761  87 5.95238095238095  L 87 19.047619047619  C 87 22.3809523809524  84.8 25  82 25  L 5 25  C 2.20000000000005 25  0 22.3809523809524  0 19.047619047619  Z " stroke-width="2" stroke="#797979" fill="none" transform="matrix(1 0 0 1 1165 415 )" mask="url(#clip8)" />
  </g>
</svg>