<?xml version="1.0" encoding="utf-8"?>
<svg version="1.1" xmlns:xlink="http://www.w3.org/1999/xlink" width="53px" height="21px" xmlns="http://www.w3.org/2000/svg">
  <defs>
    <mask fill="white" id="clip5">
      <path d="M 0 16  L 0 5  C 0 2.19999999999999  1.1777777777778 0  2.67676767676768 0  L 38.1990493166963 0  L 50.3232323232323 0  C 51.8222222222222 0  53 2.19999999999999  53 5  L 53 16  C 53 18.8  51.8222222222222 21  50.3232323232323 21  L 2.67676767676768 21  C 1.1777777777778 21  0 18.8  0 16  Z " fill-rule="evenodd" />
    </mask>
  </defs>
  <g transform="matrix(1 0 0 1 -1373 -196 )">
    <path d="M 0 16  L 0 5  C 0 2.19999999999999  1.1777777777778 0  2.67676767676768 0  L 38.1990493166963 0  L 50.3232323232323 0  C 51.8222222222222 0  53 2.19999999999999  53 5  L 53 16  C 53 18.8  51.8222222222222 21  50.3232323232323 21  L 2.67676767676768 21  C 1.1777777777778 21  0 18.8  0 16  Z " fill-rule="nonzero" fill="#ffffff" stroke="none" transform="matrix(1 0 0 1 1373 196 )" />
    <path d="M 0 16  L 0 5  C 0 2.19999999999999  1.1777777777778 0  2.67676767676768 0  L 38.1990493166963 0  L 50.3232323232323 0  C 51.8222222222222 0  53 2.19999999999999  53 5  L 53 16  C 53 18.8  51.8222222222222 21  50.3232323232323 21  L 2.67676767676768 21  C 1.1777777777778 21  0 18.8  0 16  Z " stroke-width="2" stroke="#797979" fill="none" transform="matrix(1 0 0 1 1373 196 )" mask="url(#clip5)" />
  </g>
</svg>