<?xml version="1.0" encoding="utf-8"?>
<svg version="1.1" xmlns:xlink="http://www.w3.org/1999/xlink" width="99px" height="21px" xmlns="http://www.w3.org/2000/svg">
  <defs>
    <mask fill="white" id="clip8">
      <path d="M 0 16  L 0 5  C 0 2.19999999999999  2.20000000000005 0  5 0  L 71.3529411764705 0  L 94 0  C 96.8 0  99 2.19999999999999  99 5  L 99 16  C 99 18.8  96.8 21  94 21  L 5 21  C 2.20000000000005 21  0 18.8  0 16  Z " fill-rule="evenodd" />
    </mask>
  </defs>
  <g transform="matrix(1 0 0 1 -1386 -196 )">
    <path d="M 0 16  L 0 5  C 0 2.19999999999999  2.20000000000005 0  5 0  L 71.3529411764705 0  L 94 0  C 96.8 0  99 2.19999999999999  99 5  L 99 16  C 99 18.8  96.8 21  94 21  L 5 21  C 2.20000000000005 21  0 18.8  0 16  Z " fill-rule="nonzero" fill="#ffffff" stroke="none" transform="matrix(1 0 0 1 1386 196 )" />
    <path d="M 0 16  L 0 5  C 0 2.19999999999999  2.20000000000005 0  5 0  L 71.3529411764705 0  L 94 0  C 96.8 0  99 2.19999999999999  99 5  L 99 16  C 99 18.8  96.8 21  94 21  L 5 21  C 2.20000000000005 21  0 18.8  0 16  Z " stroke-width="2" stroke="#797979" fill="none" transform="matrix(1 0 0 1 1386 196 )" mask="url(#clip8)" />
  </g>
</svg>