<?xml version="1.0" encoding="utf-8"?>
<svg version="1.1" xmlns:xlink="http://www.w3.org/1999/xlink" width="79px" height="21px" xmlns="http://www.w3.org/2000/svg">
  <defs>
    <mask fill="white" id="clip9">
      <path d="M 0 16  L 0 5  C 0 2.19999999999999  2.20000000000005 0  5 0  L 28.4864864864885 0  L 74 0  C 76.8 0  79 2.19999999999999  79 5  L 79 16  C 79 18.8  76.8 21  74 21  L 5 21  C 2.20000000000005 21  0 18.8  0 16  Z " fill-rule="evenodd" />
    </mask>
  </defs>
  <g transform="matrix(1 0 0 1 -1568 -196 )">
    <path d="M 0 16  L 0 5  C 0 2.19999999999999  2.20000000000005 0  5 0  L 28.4864864864885 0  L 74 0  C 76.8 0  79 2.19999999999999  79 5  L 79 16  C 79 18.8  76.8 21  74 21  L 5 21  C 2.20000000000005 21  0 18.8  0 16  Z " fill-rule="nonzero" fill="#ffffff" stroke="none" transform="matrix(1 0 0 1 1568 196 )" />
    <path d="M 0 16  L 0 5  C 0 2.19999999999999  2.20000000000005 0  5 0  L 28.4864864864885 0  L 74 0  C 76.8 0  79 2.19999999999999  79 5  L 79 16  C 79 18.8  76.8 21  74 21  L 5 21  C 2.20000000000005 21  0 18.8  0 16  Z " stroke-width="2" stroke="#797979" fill="none" transform="matrix(1 0 0 1 1568 196 )" mask="url(#clip9)" />
  </g>
</svg>