<?xml version="1.0" encoding="utf-8"?>
<svg version="1.1" xmlns:xlink="http://www.w3.org/1999/xlink" width="25px" height="24px" xmlns="http://www.w3.org/2000/svg">
  <defs>
    <filter x="920px" y="206px" width="25px" height="24px" filterUnits="userSpaceOnUse" id="filter1">
      <feOffset dx="1" dy="1" in="SourceAlpha" result="shadowOffsetInner" />
      <feGaussianBlur stdDeviation="2.5" in="shadowOffsetInner" result="shadowGaussian" />
      <feComposite in2="shadowGaussian" operator="atop" in="SourceAlpha" result="shadowComposite" />
      <feColorMatrix type="matrix" values="0 0 0 0 0  0 0 0 0 0  0 0 0 0 0  0 0 0 0.698039215686274 0  " in="shadowComposite" />
    </filter>
    <g id="widget2">
      <path d="M 931.5 210  C 935.7 210  939 213.08  939 217  C 939 220.92  935.7 224  931.5 224  C 927.3 224  924 220.92  924 217  C 924 213.08  927.3 210  931.5 210  Z " fill-rule="nonzero" fill="#95f204" stroke="none" />
      <path d="M 931.5 210.5  C 935.42 210.5  938.5 213.36  938.5 217  C 938.5 220.64  935.42 223.5  931.5 223.5  C 927.58 223.5  924.5 220.64  924.5 217  C 924.5 213.36  927.58 210.5  931.5 210.5  Z " stroke-width="1" stroke="#ffffff" fill="none" />
    </g>
  </defs>
  <g transform="matrix(1 0 0 1 -920 -206 )">
    <use xlink:href="#widget2" filter="url(#filter1)" />
    <use xlink:href="#widget2" />
  </g>
</svg>